<?xml version="1.0" encoding="UTF-8" standalone="no"?>
<svg
   xmlns:dc="http://purl.org/dc/elements/1.1/"
   xmlns:cc="http://web.resource.org/cc/"
   xmlns:rdf="http://www.w3.org/1999/02/22-rdf-syntax-ns#"
   xmlns:svg="http://www.w3.org/2000/svg"
   xmlns="http://www.w3.org/2000/svg"
   xmlns:sodipodi="http://sodipodi.sourceforge.net/DTD/sodipodi-0.dtd"
   xmlns:inkscape="http://www.inkscape.org/namespaces/inkscape"
   height="300"
   width="300"
   id="svg2"
   sodipodi:version="0.32"
   inkscape:version="0.45.1"
   sodipodi:docname="cute_logo.svg"
   sodipodi:docbase="/home/misto"
   inkscape:output_extension="org.inkscape.output.svg.inkscape">
  <metadata
     id="metadata15">
    <rdf:RDF>
      <cc:Work
         rdf:about="">
        <dc:format>image/svg+xml</dc:format>
        <dc:type
           rdf:resource="http://purl.org/dc/dcmitype/StillImage" />
      </cc:Work>
    </rdf:RDF>
  </metadata>
  <defs
     id="defs13" />
  <sodipodi:namedview
     inkscape:window-height="1140"
     inkscape:window-width="1592"
     inkscape:pageshadow="2"
     inkscape:pageopacity="0.0"
     guidetolerance="10.0"
     gridtolerance="10.0"
     objecttolerance="10.0"
     borderopacity="1.0"
     bordercolor="#666666"
     pagecolor="#ffffff"
     id="base"
     showguides="false"
     inkscape:guide-bbox="true"
     inkscape:zoom="1.8573338"
     inkscape:cx="-484.65234"
     inkscape:cy="-94.974484"
     inkscape:window-x="0"
     inkscape:window-y="25"
     inkscape:current-layer="layer2">
    <sodipodi:guide
       orientation="vertical"
       position="-572.20814"
       id="guide3331" />
    <sodipodi:guide
       orientation="vertical"
       position="-636.16753"
       id="guide3333" />
    <sodipodi:guide
       orientation="vertical"
       position="-517.3858"
       id="guide3335" />
    <sodipodi:guide
       orientation="vertical"
       position="-453.42641"
       id="guide3337" />
    <sodipodi:guide
       orientation="horizontal"
       position="-36.167514"
       id="guide3339" />
    <sodipodi:guide
       orientation="horizontal"
       position="-90.609139"
       id="guide3341" />
    <sodipodi:guide
       orientation="horizontal"
       position="-63.531931"
       id="guide5551" />
    <sodipodi:guide
       orientation="horizontal"
       position="28.535528"
       id="guide5563" />
    <sodipodi:guide
       orientation="horizontal"
       position="-154.52258"
       id="guide5565" />
  </sodipodi:namedview>
  <desc
     id="desc4">Flag of Switzerland</desc>
<!--
	From http://commons.wikimedia.org/wiki/Image:Flag_of_Switzerland.svg
	This file is in the public domain.
-->  <g
     inkscape:groupmode="layer"
     id="layer1"
     inkscape:label="white"
     style="display:none" />
  <g
     inkscape:groupmode="layer"
     id="layer2"
     inkscape:label="bg"
     style="display:inline">
    <rect
       style="fill:#c7230d;fill-opacity:1"
       y="217.30965"
       x="-763.24872"
       height="291.77664"
       width="437.66495"
       id="rect3286" />
    <g
       id="g5567">
      <g
         id="g3446">
        <path
           style="fill:#ffffff"
           d="M -571.78125,272.03125 L -571.78125,335.84375 L -635.59375,335.84375 L -635.59375,390.5625 L -571.78125,390.5625 L -571.78125,454.375 L -517.0625,454.375 L -517.0625,390.5625 L -453.25,390.5625 L -453.25,335.84375 L -517.0625,335.84375 L -517.0625,272.03125 L -571.78125,272.03125 z M -619.28125,345.5625 L -610.25,345.5625 L -610.25,366.53125 C -610.25001,369.42189 -609.78126,371.50001 -608.84375,372.75 C -607.89064,373.98438 -606.32814,374.59376 -604.1875,374.59375 C -602.03127,374.59376 -600.50002,373.98438 -599.5625,372.75 C -598.6094,371.50001 -598.12503,369.42189 -598.125,366.53125 L -598.125,345.5625 L -589.09375,345.5625 L -589.09375,366.53125 C -589.09378,371.48438 -590.35941,375.17188 -592.84375,377.59375 C -595.32815,380.01563 -599.09377,381.21875 -604.1875,381.21875 C -609.26564,381.21875 -613.04689,380.01563 -615.53125,377.59375 C -618.01563,375.17188 -619.28125,371.48438 -619.28125,366.53125 L -619.28125,345.5625 z M -560.9375,345.90625 L -528.6875,345.90625 L -528.6875,352.71875 L -540.28125,352.71875 L -540.28125,380.875 L -549.3125,380.875 L -549.3125,352.71875 L -560.9375,352.71875 L -560.9375,345.90625 z M -497.84375,345.90625 L -473.5,345.90625 L -473.5,352.71875 L -488.8125,352.71875 L -488.8125,359.21875 L -474.40625,359.21875 L -474.40625,366.0625 L -488.8125,366.0625 L -488.8125,374.0625 L -472.96875,374.0625 L -472.96875,380.875 L -497.84375,380.875 L -497.84375,345.90625 z "
           id="path3288" />
        <text
           id="text3299"
           y="390.11008"
           x="-694.82227"
           style="font-size:69.00335693px;font-weight:bold;fill:#ffffff;fill-opacity:1;font-family:Bitstream Vera Sans"
           xml:space="preserve"
           transform="scale(1.0013489,0.9986529)"><tspan
             style="font-size:72.45475006px;font-weight:bold;font-family:Bitstream Vera Sans"
             y="390.11008"
             x="-694.82227"
             id="tspan3301"
             sodipodi:role="line">C</tspan></text>
        <g
           transform="matrix(0.2733185,0,0,0.2733185,-443.55756,322.21605)"
           id="g3315">
          <rect
             style="fill:#ffffff"
             id="rect3317"
             y="120"
             x="10"
             width="200"
             height="60" />
          <rect
             style="fill:#ffffff"
             id="rect3319"
             y="50"
             x="80"
             width="60"
             height="200" />
        </g>
      </g>
      <text
         id="text5555"
         y="270.95471"
         x="-737.45636"
         style="font-size:36px;font-style:normal;font-weight:normal;fill:#ffffff;fill-opacity:1;stroke:none;stroke-width:1px;stroke-linecap:butt;stroke-linejoin:miter;stroke-opacity:1;font-family:Bitstream Vera Sans"
         xml:space="preserve"><tspan
           y="270.95471"
           x="-737.45636"
           id="tspan5557"
           sodipodi:role="line">SWISS</tspan></text>
      <text
         xml:space="preserve"
         style="font-size:36px;font-style:normal;font-weight:normal;fill:#ffffff;fill-opacity:1;stroke:none;stroke-width:1px;stroke-linecap:butt;stroke-linejoin:miter;stroke-opacity:1;font-family:Green"
         x="-495.17902"
         y="481.24133"
         id="text5559"><tspan
           style="font-weight:normal;font-family:Bitstream Vera Sans"
           sodipodi:role="line"
           id="tspan5561"
           x="-495.17902"
           y="481.24133">QUALITY</tspan></text>
    </g>
  </g>
</svg>
